<?xml version="1.0" encoding="utf-8"?>
<!-- Generator: Adobe Illustrator 24.2.0, SVG Export Plug-In . SVG Version: 6.00 Build 0)  -->
<svg version="1.1" id="Layer_2_1_" xmlns="http://www.w3.org/2000/svg" xmlns:xlink="http://www.w3.org/1999/xlink" x="0px" y="0px"
	 viewBox="0 0 512 512" style="enable-background:new 0 0 512 512;" xml:space="preserve">
<style type="text/css">
	.st0{clip-path:url(#SVGID_2_);fill:#FFFFFF;}
	.st1{fill:#DADADA;}
	.st2{fill:#DD0741;}
	.st3{fill:#001F47;}
</style>
<g>
	<g>
		<defs>
			<rect id="SVGID_1_" x="31" y="111.25" width="450" height="289.5"/>
		</defs>
		<clipPath id="SVGID_2_">
			<use xlink:href="#SVGID_1_"  style="overflow:visible;"/>
		</clipPath>
		<path class="st0" d="M475.05,234.24c-12.51-6.12-34.26-13.17-34.26-13.17c-0.93-0.25-2.81-0.86-2.81-0.86s0.95-1.41,1.22-2.46
			c0.75-2.7,0.6-5.85-1.14-6.83c0,0,9.49,0.52,11.55-0.28c5.84-2.28,8.08-10.11,6.02-15.65c-1.07-2.9-5.64-4.72-6.58-7.14
			c-0.89-2.3-1.47-4.1-3.92-5.34c-3.94-1.99-13.93-3.74-18.32-3.35c-3.71,0.33-4.42,4.6-6.71,5.59
			c-9.17,3.95-13.25,2.09-13.16,15.77c0,0,0,0.64,0.1,1.19c-3.32-1.61-11.61-5.67-15.45-7.38v-82.79H120.4v82.78
			c-3.84,1.71-12.13,5.77-15.45,7.38c0.1-0.54,0.1-1.19,0.1-1.19c0.09-13.68-4-11.83-13.16-15.78c-2.29-0.99-3-5.27-6.71-5.59
			c-4.39-0.38-14.37,1.36-18.32,3.35c-2.44,1.24-3.03,3.05-3.92,5.34c-0.93,2.43-5.51,4.24-6.58,7.14
			c-2.05,5.54,0.19,13.37,6.02,15.65c2.06,0.8,11.55,0.28,11.55,0.28c-1.75,0.98-1.9,4.13-1.14,6.83c0.27,1.05,1.22,2.46,1.22,2.46
			s-1.88,0.62-2.81,0.86c0,0-21.75,7.06-34.26,13.17c0,0-15,7.05,3.6,5.7c0.9,0,14.84-1.08,29.38-3.24l-0.09,0.82
			c-0.02,4.7,1.01,4.68,4.91,6.02l-0.13,0.87c-4.9,0.99-14.64,1.96-18.03,4.23c-3.71,2.49-13.86,0.56-19.95,8.85
			c-1.6,2.18-4.27,8.79-2.7,10.95c2.57,3.51,17.28,8.66,19.2,8.7c4.6,0.1,5.07-3.67,8.31-5.9c1.56-1.08,3.42-0.36,5.15-0.81
			c2.6-0.69,4.04-3.06,6.33-4.25c1.34-0.69,4.2-1.35,6.02-0.28c8.08,4.97,32.84-1.34,41.43-6.42v44.86
			c0,15.97,2.03,22.08,6.88,30.52l0.4,0.66c27.6,41.27,74.37,64.94,128.32,64.94c53.96,0,100.68-23.61,128.19-64.76l0.42-0.64
			c4.94-8.59,6.99-14.76,6.99-30.73v-44.85c8.59,5.08,33.36,11.39,41.43,6.42c1.82-1.07,4.69-0.4,6.02,0.28
			c2.29,1.19,3.73,3.56,6.34,4.25c1.73,0.46,3.59-0.27,5.15,0.81c3.24,2.23,3.72,5.99,8.31,5.9c1.92-0.04,16.63-5.19,19.2-8.7
			c1.57-2.15-1.1-8.78-2.7-10.95c-6.08-8.29-16.24-6.37-19.95-8.85c-3.39-2.26-13.13-3.24-18.03-4.23l-0.13-0.87
			c3.91-1.35,4.93-1.32,4.91-6.02l-0.09-0.82c14.54,2.16,28.48,3.24,29.38,3.24C490.06,241.29,475.05,234.24,475.05,234.24
			L475.05,234.24z"/>
	</g>
	<path class="st1" d="M242.77,273.5c-14.43,0-27.88-4.15-39.26-11.29c12.18,15.62,31.15,25.68,52.5,25.68
		c25.45,0,47.56-14.3,58.74-35.3l-0.08-0.02c-1.31-0.36-3.27-1.13-5.53-2.02c-2.54-1-7.17-2.82-8.75-3.01
		c-0.3,0.17-0.86,0.63-1.28,0.97c-0.73,0.6-1.65,1.32-2.78,2.03C282.84,264.67,263.84,273.5,242.77,273.5L242.77,273.5z"/>
	<path class="st2" d="M449.37,202.8c0.8-1.19,0.81-3.38,0.19-4.66c-0.72-1.47-2.91-1.91-4.29-2.42c-1.73,0.37,0.19,1.89-1.3,2.55
		l-3.35-0.43c-2.11-2.18,2.3-1.88,2.55-3.05c0.36-1.69-1.23-3.25-0.19-4.91c-0.18-0.4-0.43-0.83-0.87-0.99
		c-1.73-0.62-12.05-3.09-13.48-2.99l-0.43,0.5c0.42,0.57,2.15,2.15,2.23,2.3c0.69,1.25-3.95,2.14-4.72,2.3
		c-3.71,0.78-13.63,1.97-12.17,7.82c0.68,2.76,10.54,9.76,11.74,12.79c0.26,0.66,1.55,2.02,0.69,2.61c-1.81,1.23-10.94-0.42-11.43,1
		c0.51,1.91,5.94,3.35,7.7,4.03c2.08,0.79,4.01,1.39,6.21,0.31c2.46-1.2,4.05-4.45,3.61-7.14c-0.21-1.23-1.54-4.26-2.3-5.28
		c-0.72-0.95-6.71-5.7-5.03-6.34c2.02,0.64,4.78,0.07,6.21,1.99c3.77,1.07,7.81,1.73,11.68,2.43
		C445.08,205.67,447.9,204.98,449.37,202.8L449.37,202.8z M366.76,249.38c0.31-0.69,0.44-1.55,0.07-2.3
		c-0.31-0.31-0.62-0.68-1.12-0.75c-1.74,0.38-3.48,1.18-5.46,0.69c-1.81,0-4.72-1.62-5.53,0.81c-0.31,1.55-1.19,2.86-1.56,4.35
		c0,0.81,0.75,1.55,1.49,1.93c1.12,0.25,2.49,0.87,3.48,0.68c1.87-1.31,1.74-3.67,3.6-5.03c1,0.25,1.12,1.62,2.24,1.49
		C365.09,251.12,366.21,250.44,366.76,249.38L366.76,249.38z M412.04,220.5c0.32-1.76-1.66-2.04-2.86-2.43
		c-2.87-0.93-5.72-1.84-8.62-2.66c-2.12-0.61-4.27-1.74-6.4-2.18c-2.7-0.56-4.83-0.61-6.71-2.99l0.43-0.25
		c2.55,1.02,6.65,3.21,9.32,1.43c1.26-0.85,2.59-3.11,1.99-4.65c-0.45-1.16-1.88-1.32-2.86-1.75c-4.18-1.82-8.29-4.07-12.37-6.11
		c-8.64-4.3-17.27-8.65-25.88-13.02c-3.92-1.99-8.37-4.27-12.67-5.21c-3.51-0.76-7.5,0.2-10.56,2.05c-3.03,1.82-2.96,6.12-5.22,5.66
		c-0.32-0.36-0.6-0.81-0.56-1.31c-0.91-1.45-3.77,2.62-6.08,3.79c-5.16,2.59-14.22,12.5-17.95,17.21
		c-2.35,2.97-3.29,6.77-4.16,10.37l0.5,0.68c1.13,0.27,2.17-0.19,3.17-0.68c0.94,0.24,0.85,1.43,1.37,2.11
		c3.77,5.07,13.78,2.12,19.25,3.97c0.08,0.34,0,0.64-0.37,0.68c-2.45,0.31-5.7-0.2-8.22-0.26c-5.79-0.15-11.59-0.22-17.38-0.54
		l-0.69,0.37c-0.54,1.19-3.72,8.01-4.23,8.56c-0.78,0.85-1.92,1.51-2.74,2.43c-2.24,2.51-3.88,5.55-6.69,7.51
		c-0.84,0.58-2.54,0.91-2.92,1.86l0.43,0.5c8.56,0.7,9.43-8.28,15.16-10.3c0.31,0.06,0.43,0.4,0.37,0.69
		c-1.42,1.42-2.96,3.47-3.85,5.27c-3.35,6.78-5.73,4.71-8.94,7.83l0.5,0.75c9.47-0.28,11.19-5.6,14.28-6.03
		c2.64-0.37,12.51,4.26,15.78,5.16c1.64,0.45,3.25,1.01,4.98,0.98c0.58-0.01,1.35-0.32,1.85-0.29c1.27,0.04,1.52,2.3,4.29,0.99
		c1.67-0.79,1.78-3.17,1.99-4.78c0.25-1.94-2.16-3.61-1.99-4.66c0.24-1.49,2.11,0.51,2.54-0.81c0.26-0.79-0.71-2.38-1.18-2.98
		c-1.25-1.59-4.77-4.32-4.29-6.64c0.05-0.22,0.71-0.71,0.93-0.68l11.49,1.43c0.4,0.05,2.15,4.12,2.17,4.53
		c0.03,0.62-1.64,4.82-1.99,5.65c-0.96,2.28-2.64,3.94-2.61,6.58c0.03,3.24,2.21,6.25,3.85,8.94c1.81,2.98,4.7,1.56,7.33,2.42
		c1.08,0.36,2.24,1.1,3.3,1.58c3.33,1.46,7.07,2.97,10.61,3.83c1.94,0.47,4.94-0.18,6.08-1.99c0.84-1.32-1.99-1.72-0.74-3.17
		c0.66-0.77,1.49-0.72,2.42-0.62c1.99,0.22,12.22,1.46,13.29,0.31c0.36-0.39-0.18-0.9-0.49-1.06c-2.06-0.99-5.25-1.47-7.52-2.11
		c-2.74-0.78-5.58-0.97-8.32-1.81c-2.34-0.72-2.18,1.67-3.85,2.73c-2.51,1.61-9.24-1.59-10.06-4.48c-0.78-2.77,1.74-6.27,3.54-8.13
		c1.41-1.47,3.14-1.68,4.54-2.8c0.88-0.71,0.25-2.11,0.25-3.04c1.38-1.73,6.57,1.02,8.69,0.44c2.3-0.64,0.58-3.68,2.55-4.29
		c1.73,0.49,3.09,1.74,4.78,2.36c1.25,0.46,3.46,0.69,4.29,1.8c0.66,0.88-0.02,2.11-0.19,3.04c0.61,1.15,2.54,1.51,3.73,1.68
		c1.91,0.28,3.99,0.16,5.94,0.37c1.94,0.2,3.89,0.76,5.8,0.93l6.46,0.62c1.56,0.75-0.38,2.08,1.05,5.09c-1.53-0.22-7.85-2.11-8.57,0
		c5.57,5.19,18.22,8.87,25.71,9.94c4.59,0.66,9.44,0.51,14.04,0.13c0.69-0.05,1.31-0.17,1.72-0.53c0.01,0.03,2.46-2.04,3.78-1.83
		c1.8,0.3,3.9,3.75,7.64,5.18c2.55,1.44,4.97-1.05,6.96,0.07c2.43,1.37,3.95,8.29,7.82,7.2c0.78-0.22,4.15-1.38,4.6-1.84
		c1.28-1.05-0.88-3.8-1.99-5.65c-0.4-0.57-0.67-0.99-1.14-1.11c-4.5-1.15-2.38-6.28-8.81-7.51c-2.89-0.54-3.61-0.78-6.52-1.32
		c-0.78-0.15-2.56,0.24-2.65-0.88c-0.02,0,0.48-0.54,0.48-0.54l5.15-0.12l-0.12-0.68c-8.25-1.04-16.34-3.38-24.59-4.36
		c-0.62-0.36-1.4-2.27-1.31-2.85c0.25-1.5,2.62,1.29,3.85-1.68c0.72-1.72-1.01-3.2,0.37-4.04c3.62,0.46,7.25,0.92,10.87,1.43
		c-20.48-4.89-41.14-8.99-61.62-13.84c-4.44-1.05-8.98-1.75-13.35-3.11l0.07-0.49c18.07,2.53,35.96,6.89,54.1,8.82v-0.43
		c-10.03-1.91-19.96-4.47-30-6.28c-14.97-2.69-30.06-4.94-45.09-7.24c-9.81-1.5-19.78-3.33-29.68-4.18l-0.31,0.68
		c0.66,0.81,1.59,1.19,2.49,1.68c0.13,0.2,0.14,0.46-0.06,0.62c-1.26-0.13-6.89,0.23-6.9-1.11c2.09-1.99,2.61-3.02,5.65-2.73
		c4.74,0.44,9.51,1.14,14.23,1.73c27.17,3.48,54.55,7.13,81.55,11.8c28.47,4.93,43.54,7.13,66.94,11.63
		c-7.95-2.85-43.8-12.9-62.1-16.05C413.54,221.34,412.45,221.48,412.04,220.5L412.04,220.5z M405.33,252.42
		c1.43,0.12,2.2,0.09,4.06,0.47c3.05,0.63,6.08,0.87,9.18,1.74c0.5,0.19,1.04,0.89,1.1,1.38c-0.19,0.31-0.63,0.4-0.88,0.4
		l-12.11-3.1L405.33,252.42L405.33,252.42z M338.5,247.45l3.35-7.88c0.13-0.56,0.69-1.12,1.25-1.05c0.75,0.25,1.68,0.37,1.93,1.24
		l-2.86,6.15c-1.99,2.61-0.56,6.21,0.13,8.82c-0.07,0.37-0.44,0.57-0.75,0.63C339.56,253.35,337.76,250.56,338.5,247.45
		L338.5,247.45z M312.98,241.93c-0.76,0.57-2.11,0.25-3.06,0.13c-1.16-0.64-1.41-1.97-1.54-3.26c0-0.31,0.07-0.64,0.39-0.9
		c1.34,0,2.68,0.33,3.58,1.41C312.73,240.15,313.43,241.04,312.98,241.93z M353.73,209.73l1.67,0.77c0,0-24.59-3.48-36.46-5.22
		c-0.5-0.06-2.04-0.21-1.78-1.08c0.31-0.19,0.68-0.31,1.05-0.25L353.73,209.73z M360.06,198.76l-0.25,0.25
		c-6.28-1.22-12.72-2.7-18.88-4.41c-0.48-0.13-1.57-0.22-1.43-0.93c2.26-0.43,12.57,2.29,15.16,3.16c1.15,0.39,1.83,0.12,2.99,0
		C358.51,197.39,359.4,197.94,360.06,198.76L360.06,198.76z M145.17,247.08c-0.37,0.75-0.25,1.62,0.07,2.3
		c0.55,1.05,1.67,1.74,2.79,1.87c1.12,0.13,1.24-1.25,2.24-1.49c1.86,1.37,1.74,3.73,3.6,5.03c0.99,0.19,2.36-0.43,3.48-0.68
		c0.74-0.37,1.49-1.12,1.49-1.93c-0.37-1.49-1.25-2.79-1.56-4.35c-0.8-2.43-3.72-0.81-5.53-0.81c-1.99,0.49-3.72-0.31-5.46-0.69
		C145.79,246.39,145.48,246.77,145.17,247.08L145.17,247.08z M229.64,245.65l0.43-0.5c-0.37-0.96-2.07-1.28-2.92-1.86
		c-2.82-1.95-4.45-5-6.69-7.51c-0.82-0.92-1.97-1.58-2.74-2.43c-0.51-0.56-3.68-7.38-4.23-8.56l-0.69-0.37
		c-5.78,0.32-11.59,0.39-17.38,0.54c-2.51,0.07-5.76,0.58-8.22,0.26c-0.37-0.04-0.46-0.34-0.37-0.68c5.48-1.85,15.49,1.1,19.25-3.97
		c0.52-0.69,0.43-1.87,1.37-2.11c0.99,0.49,2.03,0.95,3.17,0.68l0.5-0.68c-0.87-3.61-1.81-7.4-4.16-10.37
		c-3.73-4.71-12.79-14.61-17.95-17.21c-2.32-1.16-5.17-5.24-6.08-3.79c0.04,0.5-0.23,0.94-0.56,1.31c-2.26,0.46-2.2-3.83-5.22-5.66
		c-3.06-1.84-7.05-2.81-10.56-2.05c-4.3,0.94-8.76,3.23-12.67,5.21c-8.61,4.37-17.24,8.72-25.88,13.02
		c-4.09,2.04-8.19,4.29-12.37,6.11c-0.98,0.43-2.41,0.58-2.86,1.75c-0.6,1.54,0.72,3.81,1.99,4.65c2.67,1.78,6.77-0.42,9.32-1.43
		l0.43,0.25c-1.88,2.37-4.01,2.43-6.71,2.99c-2.14,0.45-4.27,1.57-6.4,2.18c-2.9,0.82-5.75,1.73-8.62,2.66
		c-1.2,0.39-3.18,0.67-2.86,2.43c-0.42,0.98-1.5,0.84-2.35,0.99c-18.3,3.15-54.15,13.2-62.1,16.05c23.4-4.5,38.47-6.7,66.94-11.63
		c27-4.68,54.37-8.32,81.55-11.8c4.72-0.6,9.49-1.3,14.23-1.73c3.05-0.28,3.55,0.75,5.65,2.73c-0.01,1.34-5.63,0.98-6.9,1.11
		c-0.2-0.16-0.19-0.42-0.06-0.62c0.9-0.48,1.82-0.86,2.49-1.68l-0.31-0.68c-9.89,0.84-19.87,2.68-29.68,4.18
		c-15.04,2.31-30.12,4.55-45.09,7.24c-10.05,1.81-19.97,4.36-30,6.28v0.43c18.14-1.93,36.03-6.28,54.1-8.82l0.07,0.49
		c-4.37,1.35-8.91,2.05-13.35,3.11c-20.48,4.86-41.14,8.96-61.62,13.84c3.62-0.51,7.25-0.96,10.87-1.43
		c1.38,0.84-0.34,2.32,0.37,4.04c1.23,2.97,3.61,0.17,3.85,1.68c0.1,0.58-0.69,2.49-1.31,2.85c-8.25,0.98-16.34,3.32-24.59,4.36
		l-0.12,0.68l5.15,0.12c0,0,0.5,0.54,0.48,0.54c-0.09,1.13-1.87,0.73-2.65,0.88c-2.91,0.54-3.62,0.78-6.52,1.32
		c-6.43,1.22-4.31,6.36-8.81,7.51c-0.46,0.12-0.74,0.54-1.14,1.11c-1.1,1.84-3.26,4.6-1.99,5.65c0.46,0.45,3.82,1.61,4.6,1.84
		c3.88,1.09,5.39-5.83,7.82-7.2c1.99-1.12,4.41,1.37,6.96-0.07c3.74-1.43,5.84-4.88,7.64-5.18c1.32-0.21,3.77,1.86,3.79,1.83
		c0.42,0.36,1.03,0.48,1.72,0.53c4.6,0.38,9.46,0.54,14.04-0.13c7.49-1.07,20.14-4.74,25.71-9.94c-0.73-2.11-7.04-0.22-8.58,0
		c1.43-3.01-0.5-4.35,1.05-5.09l6.46-0.62c1.91-0.18,3.86-0.73,5.8-0.93c1.95-0.2,4.03-0.1,5.94-0.37c1.19-0.17,3.12-0.53,3.73-1.68
		c-0.17-0.93-0.84-2.16-0.19-3.04c0.82-1.1,3.03-1.34,4.29-1.8c1.69-0.62,3.05-1.87,4.78-2.36c1.96,0.6,0.25,3.64,2.55,4.29
		c2.12,0.58,7.31-2.17,8.69-0.44c-0.01,0.93-0.64,2.34,0.25,3.04c1.39,1.12,3.12,1.33,4.54,2.8c1.8,1.87,4.32,5.37,3.54,8.13
		c-0.81,2.88-7.55,6.08-10.06,4.48c-1.66-1.06-1.52-3.45-3.85-2.73c-2.74,0.84-5.59,1.03-8.32,1.81c-2.27,0.63-5.46,1.11-7.52,2.11
		c-0.31,0.16-0.85,0.67-0.49,1.06c1.07,1.16,11.3-0.09,13.29-0.31c0.93-0.1,1.76-0.15,2.42,0.62c1.25,1.45-1.58,1.85-0.74,3.17
		c1.14,1.8,4.15,2.45,6.08,1.99c3.54-0.85,7.28-2.37,10.61-3.83c1.06-0.47,2.22-1.22,3.3-1.58c2.62-0.86,5.52,0.56,7.33-2.42
		c1.64-2.68,3.82-5.7,3.85-8.94c0.03-2.64-1.65-4.3-2.61-6.58c-0.34-0.83-2.02-5.03-1.99-5.65c0.02-0.41,1.78-4.48,2.17-4.53
		l11.49-1.43c0.22-0.03,0.88,0.46,0.93,0.68c0.48,2.32-3.04,5.05-4.29,6.64c-0.47,0.6-1.44,2.19-1.18,2.98
		c0.43,1.31,2.3-0.68,2.54,0.81c0.18,1.06-2.23,2.71-1.99,4.66c0.2,1.62,0.32,4,1.99,4.78c2.77,1.31,3.02-0.95,4.29-0.99
		c0.49-0.02,1.28,0.28,1.85,0.29c1.73,0.02,3.34-0.54,4.98-0.98c3.26-0.9,13.14-5.53,15.78-5.16c3.09,0.43,4.81,5.75,14.28,6.03
		l0.5-0.75c-3.22-3.11-5.6-1.05-8.95-7.83c-0.89-1.81-2.43-3.85-3.85-5.27c-0.07-0.29,0.05-0.63,0.37-0.69
		C220.21,237.37,221.08,246.35,229.64,245.65L229.64,245.65z M106.66,252.42l-1.36,0.9l-12.11,3.1c-0.25,0-0.69-0.09-0.88-0.4
		c0.06-0.5,0.6-1.2,1.1-1.38c3.1-0.87,6.15-1.12,9.18-1.74C104.46,252.52,105.23,252.55,106.66,252.42L106.66,252.42z
		 M173.49,247.45c0.75,3.11-1.06,5.9-3.04,7.89c-0.31-0.06-0.69-0.25-0.75-0.63c0.69-2.61,2.12-6.21,0.13-8.82l-2.86-6.15
		c0.25-0.87,1.19-0.99,1.93-1.24c0.57-0.06,1.12,0.49,1.25,1.05L173.49,247.45L173.49,247.45z M172.5,193.68
		c0.14,0.7-0.96,0.8-1.43,0.93c-6.16,1.71-12.6,3.19-18.88,4.41l-0.25-0.25c0.66-0.82,1.55-1.37,2.42-1.93
		c1.16,0.12,1.84,0.39,2.99,0C159.93,195.96,170.24,193.24,172.5,193.68L172.5,193.68z M193.05,205.29
		c-11.87,1.74-36.46,5.22-36.46,5.22l1.67-0.77l35.52-5.78c0.37-0.07,0.75,0.06,1.05,0.25
		C195.09,205.07,193.55,205.23,193.05,205.29z M203.62,238.8c-0.13,1.28-0.39,2.62-1.54,3.26c-0.96,0.13-2.3,0.45-3.06-0.13
		c-0.45-0.89,0.25-1.79,0.64-2.62c0.89-1.08,2.23-1.41,3.58-1.41C203.55,238.16,203.62,238.49,203.62,238.8L203.62,238.8z
		 M98.46,198.83c1.45-5.86-8.46-7.05-12.17-7.82c-0.77-0.16-5.4-1.05-4.72-2.3c0.08-0.14,1.82-1.72,2.23-2.3l-0.43-0.5
		c-1.43-0.11-11.75,2.37-13.48,2.99c-0.45,0.16-0.69,0.59-0.87,0.99c1.05,1.66-0.55,3.22-0.19,4.91c0.25,1.17,4.65,0.87,2.55,3.05
		l-3.35,0.43c-1.5-0.66,0.43-2.17-1.31-2.55c-1.38,0.51-3.58,0.94-4.29,2.42c-0.62,1.28-0.61,3.47,0.19,4.66
		c1.46,2.18,4.29,2.87,6.77,2.43c3.86-0.7,7.9-1.35,11.68-2.43c1.43-1.92,4.18-1.34,6.21-1.99c1.69,0.64-4.32,5.39-5.03,6.34
		c-0.76,1.02-2.09,4.04-2.3,5.28c-0.45,2.7,1.16,5.94,3.61,7.14c2.19,1.08,4.13,0.48,6.21-0.31c1.76-0.67,7.19-2.12,7.7-4.03
		c-0.49-1.41-9.62,0.23-11.43-1c-0.86-0.58,0.43-1.96,0.68-2.61C87.92,208.58,97.78,201.58,98.46,198.83z M52.78,254.96
		c-0.31-0.98-6.44,0.11-6.78,1.29C45.51,257.99,50.6,260.28,52.78,254.96z M39.07,265.62c0.13,0.19,0.84,0.54,1.16,0.74
		c1.3,0.7,2.53,1.94,3.4,0.82c0.45-0.57,2.85-4.71,3.3-6.27c0.19-0.63-0.24-1.53-1.74-1.59h-0.3
		C40.99,259.71,39.75,263.07,39.07,265.62z M466,256.25c-0.34-1.19-6.47-2.28-6.78-1.29C461.4,260.28,466.49,257.99,466,256.25z
		 M465.07,260.91c0.45,1.56,2.85,5.7,3.3,6.27c0.87,1.12,2.1-0.12,3.4-0.82c0.32-0.2,1.04-0.55,1.16-0.74
		c-0.68-2.55-1.92-5.91-5.82-6.3h-0.3C465.31,259.38,464.89,260.28,465.07,260.91z"/>
	<path class="st3" d="M384.45,304.35v-39.87h-7.44v39.87c0,14.16-1.64,17.5-4.94,23.25c-25.19,37.68-67.79,58.27-116.08,58.27
		s-90.88-20.6-116.07-58.27c-3.3-5.75-4.94-9.09-4.94-23.25V264.4h-7.45v39.95c0,15.05,1.81,19.78,5.93,26.96l0.27,0.43
		c27.52,41.17,73.23,61.58,122.26,61.58c49.03,0,94.73-20.42,122.26-61.58l0.26-0.43C382.65,324.13,384.45,319.41,384.45,304.35
		L384.45,304.35z M200,191.97c3.58-7.97,7.48-14.8,9.47-18.13c-5.41,5.3-9.92,11.5-13.28,18.38c0.7,0.6,1.41,1.23,2.13,1.89
		C198.87,193.39,199.43,192.68,200,191.97z M315.09,348.72l12.36-7.75l-2.79-4.45l-7.74,4.86l-11.09-34.88l-2.67-4.27l-12.36,7.75
		l2.79,4.45l7.74-4.86l11.09,34.87L315.09,348.72z M309,198.54c-6.5-4.51-16.15-9.3-16.15-9.3c-6.87,9.67-12.58,21.63-12.58,21.63
		c3.38,7.07,8.44,15.04,11.22,19.97c3.74-5.49,5.28-10.67,7.61-18.09C300.79,207.35,303.08,204.44,309,198.54L309,198.54z
		 M251.81,211.13c0,0-8.3-13.22-16.98-23.08c0,0-18.3,8.16-25.04,11.67l-0.3,5c0.1,0.34,2.52,3.82,3.54,7.6l2.05,6.54
		c0.24,0.74,0.46,1.41,0.46,1.41c0.46,1.34,1.09,3.01,1.85,4.73c0.69,1.56,1.49,3.18,2.38,4.66c0.7,1.18,1.58,2.26,2.61,3.16
		c0.03,0.02,0.05,0.05,0.08,0.07c0.92,0.8,2.01,1.37,3.19,1.7c3.17,0.88,6.72,1.81,10.59,2.74
		C236.26,237.33,247.8,218.92,251.81,211.13z M256,154.84c-7.5,0-14.7,1.26-21.43,3.55l12.66,9.99c0,0,15.45-1.46,29.33,0.32
		c1.98-3.28,3-6.04,3.51-7.78c14.66,6.94,26.26,19.26,32.3,34.4c1.14-1.1,2.3-2.15,3.44-3.11
		C304.99,170.09,282.27,154.84,256,154.84L256,154.84z M341.86,330.16l3.72-3.69l-32-32.26l-0.2-0.2l-3.72,3.7l32,32.26
		L341.86,330.16z M344.47,294.89l12.68,7.99l-2.18,3.47l-29.79-18.79l2.19-3.47l4.01,2.53l2.8-4.44l-2.59-1.64
		c-1.16-0.73-2.5-1.12-3.88-1.12c-2.54,0-4.85,1.27-6.19,3.39c-2.14,3.4-1.12,7.91,2.28,10.07l26.96,17
		c1.16,0.73,2.5,1.12,3.88,1.12c2.54,0,4.85-1.27,6.19-3.39c2.14-3.4,1.11-7.92-2.29-10.07l-15.7-9.9l-3.88,6.15l4.44,2.8
		L344.47,294.89L344.47,294.89z M290.85,358.52l-5.91-19.35l4.2-1.28c1.26-0.38,2.32-1.25,2.93-2.41c0.62-1.16,0.75-2.53,0.36-3.79
		l-4.54-14.88c-0.64-2.11-2.55-3.52-4.74-3.52c-0.49,0-0.98,0.07-1.46,0.22l-9.21,2.82l13.27,43.45l0.08,0.27L290.85,358.52
		L290.85,358.52z M283.39,334.14l-4.38-14.33l3.92-1.2l4.38,14.33L283.39,334.14z M269.64,362.74l-3.96-45.56l-5.22,0.46l3.96,45.56
		L269.64,362.74z M249.88,358.28l-9.28-1.1l1.76-14.88l6.96,0.83l0.62-5.21l-6.96-0.83l1.76-14.88l9.28,1.1l0.62-5.21l-9.56-1.14
		c-2.76-0.33-5.19,1.66-5.51,4.35l-4.22,35.55c-0.33,2.71,1.63,5.19,4.34,5.51l9.56,1.14L249.88,358.28L249.88,358.28z M256,287.89
		c25.45,0,47.56-14.3,58.74-35.3l-0.08-0.02c-1.31-0.36-3.27-1.13-5.53-2.02c-0.1-0.04-0.22-0.08-0.33-0.13
		c-5.8,10.42-14.37,19.09-24.76,24.94l-5.3-14.91l-28.81,0.78l-11.28,15.82c0,0,4.72,3.55,13.18,6.54
		c-13.93-0.14-26.77-4.73-37.23-12.37c0.34-0.29,0.68-0.6,0.95-0.9c0,0-7.81-11.24-12.58-19.81c-0.04,0.02-0.08,0.04-0.12,0.05
		c-2.26,0.89-4.22,1.66-5.53,2.02l-0.08,0.02C208.44,273.59,230.54,287.89,256,287.89L256,287.89z M225.1,354.34l-8.84-3.05
		l13.2-38.26l-4.95-1.71l-14.91,43.22l13.79,4.75L225.1,354.34z M193.92,320.27c0.22,0.03,0.42,0.04,0.62,0.04
		c1.14,0,2.12-0.51,3.06-1.6l9.33-10.83c0.87-0.99,1.3-2.29,1.2-3.61c-0.09-1.31-0.71-2.53-1.71-3.39l-7.29-6.29l-29.85,34.64
		l7.29,6.29c0.9,0.78,2.05,1.2,3.24,1.2c1.44,0,2.82-0.63,3.76-1.73l8.96-10.4C193.94,322.96,194.39,321.6,193.92,320.27
		L193.92,320.27z M189.83,320l-0.13,0.14l-9.91,11.5l-3.39-2.93l10.03-11.65L189.83,320z M192.98,316.04l-3.11-2.68l9.79-11.35
		l3.11,2.68L192.98,316.04L192.98,316.04z M170.39,298.84l2.35,3.36l-13.6,9.52c-1.04,0.73-1.8,1.95-2.26,2.85l-0.08,0.16l3.13,4.47
		l0.22-0.43c0.51-1.05,0.99-2.04,2-2.74l12.33-8.63c1.79-1.25,2.55-2.46,2.43-3.86c0.43,0.17,0.91,0.3,1.45,0.3
		c0.8,0,1.62-0.29,2.49-0.91l11.71-8.2c1.08-0.75,1.82-1.9,2.05-3.2c0.23-1.3-0.06-2.62-0.82-3.71l-5.53-7.89l-37.45,26.22l3,4.29
		L170.39,298.84L170.39,298.84z M174.42,295.79l0.16-0.11l12.43-8.7l2.57,3.68l-0.16,0.11l-12.43,8.7L174.42,295.79z M377.02,187.59
		l7.45,3.46v-72.37H127.54v72.3l7.45-3.49v-61.35h242.03L377.02,187.59L377.02,187.59z"/>
</g>
</svg>
