<?xml version="1.0" encoding="UTF-8"?>
<svg xmlns="http://www.w3.org/2000/svg" xmlns:xlink="http://www.w3.org/1999/xlink" width="596pt" height="596pt" viewBox="0 0 596 596" version="1.1">
<g id="surface1">
<path style=" stroke:none;fill-rule:evenodd;fill:rgb(100%,100%,100%);fill-opacity:1;" d="M 0 0.417969 L 595.277344 0.417969 L 595.277344 595.691406 L 0 595.691406 L 0 0.417969 "/>
<path style=" stroke:none;fill-rule:evenodd;fill:rgb(92.89856%,10.998535%,14.099121%);fill-opacity:1;" d="M 494.390625 77.316406 C 508.195313 148.722656 516.265625 220.425781 510.019531 293.171875 C 504.683594 355.304688 491.894531 411.710938 463.046875 467.449219 C 460.46875 472.429688 457.789063 477.359375 455.011719 482.234375 L 454.578125 482.992188 L 297.734375 560.28125 L 139.855469 482.988281 L 139.417969 482.210938 C 100.96875 413.167969 84.8125 337.394531 83.152344 258.824219 C 81.859375 197.558594 88.027344 137.117188 101.085938 77.25 L 101.347656 76.058594 L 102.390625 75.421875 C 160.066406 40.300781 230.21875 20.695313 297.730469 20.695313 C 367.226563 20.695313 433.261719 40.300781 493.035156 75.398438 L 494.144531 76.050781 L 494.390625 77.316406 "/>
<path style=" stroke:none;fill-rule:evenodd;fill:rgb(70.199585%,20.399475%,35.699463%);fill-opacity:1;" d="M 103.871094 77.855469 C 162.996094 41.851563 233.109375 23.542969 297.730469 23.542969 C 362.351563 23.542969 428.195313 40.628906 491.59375 77.855469 C 505.414063 149.339844 513.425781 220.195313 507.179688 292.929688 C 502.089844 352.1875 490.34375 408.507813 460.515625 466.140625 C 457.988281 471.023438 455.328125 475.917969 452.535156 480.824219 L 297.730469 557.109375 L 141.90625 480.824219 C 108.378906 420.617188 87.890625 348.3125 86 258.765625 C 84.863281 205.039063 89.203125 145.105469 103.871094 77.855469 "/>
<path style=" stroke:none;fill-rule:evenodd;fill:rgb(100%,100%,100%);fill-opacity:1;" d="M 467.796875 61.980469 C 475.679688 92.277344 482.144531 122.847656 486.355469 153.394531 L 457.523438 147.453125 C 453.464844 115.328125 447.179688 82.1875 439.707031 47.933594 Z M 488.421875 170.027344 C 489.078125 175.976563 489.644531 181.917969 490.109375 187.855469 L 461 181.859375 C 460.5625 175.960938 460.035156 170.027344 459.425781 164.058594 Z M 491.152344 204.28125 C 491.402344 209.496094 491.566406 214.707031 491.652344 219.90625 L 462.425781 213.890625 C 462.355469 208.710938 462.203125 203.507813 461.972656 198.273438 Z M 491.640625 236.117188 C 491.613281 237.59375 491.578125 239.066406 491.539063 240.539063 C 491.433594 244.25 491.28125 247.953125 491.085938 251.652344 L 461.730469 245.605469 C 461.828125 243.953125 461.917969 242.296875 461.996094 240.640625 C 462.15625 237.136719 462.277344 233.617188 462.355469 230.085938 Z M 489.945313 267.628906 C 489.503906 272.550781 488.972656 277.457031 488.355469 282.355469 L 458.742188 276.257813 C 459.402344 271.378906 459.980469 266.480469 460.46875 261.558594 Z M 486.058594 298.09375 C 477.449219 349.917969 458.558594 400.1875 426.273438 447.289063 L 415.28125 420.421875 C 433.589844 380.769531 448.457031 337.441406 456.320313 291.972656 L 486.058594 298.09375 "/>
<path style=" stroke:none;fill-rule:evenodd;fill:rgb(100%,100%,100%);fill-opacity:1;" d="M 125.242188 61.980469 C 117.359375 92.277344 110.894531 122.847656 106.683594 153.394531 L 135.515625 147.453125 C 139.574219 115.328125 145.855469 82.1875 153.332031 47.933594 Z M 104.617188 170.027344 C 103.960938 175.976563 103.394531 181.917969 102.925781 187.855469 L 132.039063 181.859375 C 132.472656 175.960938 133.003906 170.027344 133.613281 164.058594 Z M 101.886719 204.28125 C 101.636719 209.496094 101.46875 214.707031 101.386719 219.90625 L 130.613281 213.890625 C 130.679688 208.710938 130.835938 203.507813 131.066406 198.273438 Z M 101.398438 236.117188 C 101.425781 237.59375 101.457031 239.066406 101.5 240.539063 C 101.605469 244.25 101.757813 247.953125 101.953125 251.652344 L 131.308594 245.605469 C 131.210938 243.953125 131.121094 242.296875 131.042969 240.640625 C 130.878906 237.136719 130.761719 233.617188 130.679688 230.085938 Z M 103.089844 267.628906 C 103.535156 272.550781 104.066406 277.457031 104.683594 282.355469 L 134.296875 276.257813 C 133.636719 271.378906 133.058594 266.480469 132.570313 261.558594 Z M 106.980469 298.09375 C 115.589844 349.917969 134.480469 400.1875 166.765625 447.289063 L 177.757813 420.421875 C 159.445313 380.769531 144.582031 337.441406 136.71875 291.972656 L 106.980469 298.09375 "/>
<path style=" stroke:none;fill-rule:evenodd;fill:rgb(13.699341%,12.199402%,12.5%);fill-opacity:1;" d="M 400.488281 381.417969 L 396.691406 383.1875 L 439.351563 479.765625 L 443.378906 478.152344 L 400.488281 381.417969 "/>
<path style=" stroke:none;fill-rule:evenodd;fill:rgb(13.699341%,12.199402%,12.5%);fill-opacity:1;" d="M 192.761719 382.027344 L 196.554688 383.796875 L 153.894531 480.375 L 149.871094 478.761719 L 192.761719 382.027344 "/>
<path style=" stroke:none;fill-rule:evenodd;fill:rgb(13.699341%,12.199402%,12.5%);fill-opacity:1;" d="M 216.480469 281.296875 C 232.109375 281.296875 244.78125 293.96875 244.78125 309.597656 C 244.78125 313.347656 244.050781 316.921875 242.726563 320.195313 L 296.78125 327.980469 L 350.839844 320.199219 C 349.515625 316.921875 348.785156 313.347656 348.785156 309.597656 C 348.785156 293.96875 361.457031 281.296875 377.085938 281.296875 C 392.710938 281.296875 405.386719 293.96875 405.386719 309.597656 C 405.386719 312.0625 405.066406 314.453125 404.472656 316.738281 L 414.078125 333.59375 L 414.074219 339.464844 L 299.839844 339.328125 L 179.109375 339.617188 L 179.105469 333.746094 L 189.074219 316.671875 C 188.492188 314.410156 188.179688 312.039063 188.179688 309.597656 C 188.179688 293.96875 200.855469 281.296875 216.480469 281.296875 "/>
<path style=" stroke:none;fill-rule:evenodd;fill:rgb(100%,100%,100%);fill-opacity:1;" d="M 216.480469 286.28125 C 229.355469 286.28125 239.796875 296.722656 239.796875 309.597656 C 239.796875 322.472656 229.355469 332.914063 216.480469 332.914063 C 203.605469 332.914063 193.164063 322.472656 193.164063 309.597656 C 193.164063 296.722656 203.605469 286.28125 216.480469 286.28125 Z M 216.480469 290.910156 C 226.800781 290.910156 235.167969 299.277344 235.167969 309.597656 C 235.167969 319.914063 226.800781 328.285156 216.480469 328.285156 C 206.164063 328.285156 197.796875 319.914063 197.796875 309.597656 C 197.796875 299.277344 206.164063 290.910156 216.480469 290.910156 "/>
<path style=" stroke:none;fill-rule:evenodd;fill:rgb(100%,100%,100%);fill-opacity:1;" d="M 377.085938 286.28125 C 364.210938 286.28125 353.769531 296.722656 353.769531 309.597656 C 353.769531 322.472656 364.210938 332.914063 377.085938 332.914063 C 389.960938 332.914063 400.398438 322.472656 400.398438 309.597656 C 400.398438 296.722656 389.960938 286.28125 377.085938 286.28125 Z M 377.085938 290.910156 C 366.765625 290.910156 358.398438 299.277344 358.398438 309.597656 C 358.398438 319.914063 366.765625 328.285156 377.085938 328.285156 C 387.402344 328.285156 395.773438 319.914063 395.773438 309.597656 C 395.773438 299.277344 387.402344 290.910156 377.085938 290.910156 "/>
<path style=" stroke:none;fill-rule:evenodd;fill:rgb(13.699341%,12.199402%,12.5%);fill-opacity:1;" d="M 296.195313 15.300781 C 321.785156 15.300781 342.539063 36.054688 342.539063 61.644531 C 342.539063 87.234375 321.785156 107.984375 296.195313 107.984375 C 270.605469 107.984375 249.855469 87.234375 249.855469 61.644531 C 249.855469 36.054688 270.605469 15.300781 296.195313 15.300781 "/>
<path style=" stroke:none;fill-rule:evenodd;fill:rgb(100%,100%,100%);fill-opacity:1;" d="M 296.339844 21.710938 C 318.3125 21.710938 336.128906 39.527344 336.128906 61.503906 C 336.128906 83.476563 318.3125 101.292969 296.339844 101.292969 C 274.363281 101.292969 256.546875 83.476563 256.546875 61.503906 C 256.546875 39.527344 274.363281 21.710938 296.339844 21.710938 "/>
<path style=" stroke:none;fill-rule:evenodd;fill:rgb(13.699341%,12.199402%,12.5%);fill-opacity:1;" d="M 296.949219 27.828125 C 315.039063 27.828125 329.707031 42.496094 329.707031 60.585938 C 329.707031 78.675781 315.039063 93.34375 296.949219 93.34375 C 278.859375 93.34375 264.191406 78.675781 264.191406 60.585938 C 264.191406 42.496094 278.859375 27.828125 296.949219 27.828125 Z M 271.585938 78.363281 L 277.152344 74.335938 C 276.203125 70.210938 275.53125 65.179688 275.523438 60.972656 C 273.980469 58.496094 272.695313 55.851563 271.707031 53.105469 C 269.875 54.0625 268.011719 55.25 266.175781 57.046875 C 266.042969 58.207031 265.972656 59.390625 265.972656 60.585938 C 265.972656 67.199219 268.050781 73.332031 271.585938 78.363281 Z M 278.179688 75.789063 L 272.648438 79.789063 C 278.324219 86.960938 287.097656 91.5625 296.949219 91.5625 C 310.480469 91.5625 321.984375 82.882813 326.203125 70.785156 C 325.925781 70.691406 325.644531 70.59375 325.363281 70.492188 C 322.636719 73.03125 319.851563 75.195313 317.234375 76.382813 C 315.019531 79.984375 312.863281 83.445313 310.140625 86.71875 L 309.574219 87.402344 L 308.203125 86.265625 L 308.773438 85.582031 C 311.296875 82.546875 313.324219 79.335938 315.375 76.003906 C 313.953125 73.429688 312.207031 70.910156 309.894531 68.496094 C 305.753906 69.132813 300.925781 69.210938 296.707031 68.726563 C 295.339844 72.386719 293.171875 76.15625 290.804688 79.179688 C 292.011719 81.402344 293.316406 83.558594 294.792969 85.648438 L 295.308594 86.371094 L 293.855469 87.402344 L 293.339844 86.675781 C 291.730469 84.402344 290.320313 82.046875 289.019531 79.617188 C 286.347656 79.121094 281.871094 77.914063 278.179688 75.789063 Z M 296.105469 66.859375 C 300.386719 67.441406 305.46875 67.386719 309.742188 66.714844 C 311.925781 62.847656 313.414063 58.601563 314.089844 55.351563 C 312.0625 52.136719 309.609375 48.816406 306.929688 46.152344 C 303.109375 45.726563 298.144531 46.152344 293.777344 46.640625 C 291.472656 49.816406 289.636719 53.394531 288.203125 57.046875 C 290.105469 60.355469 292.996094 63.714844 295.992188 66.84375 Z M 272.832031 50.859375 C 273.742188 53.800781 275.011719 56.640625 276.582031 59.289063 C 279.703125 58.878906 283.539063 57.703125 286.53125 56.433594 C 287.984375 52.71875 289.84375 49.082031 292.164063 45.828125 C 290.984375 43.191406 289.550781 40.488281 287.652344 38.746094 C 283.925781 39.164063 279.992188 40.011719 276.515625 41.328125 C 274.574219 44.246094 273.402344 47.609375 272.832031 50.859375 Z M 308.5 45.210938 C 311.113281 47.875 313.507813 51.105469 315.507813 54.265625 C 318.390625 54.980469 321.761719 55.664063 324.566406 55.730469 C 325.136719 54.085938 325.640625 52.394531 325.996094 50.714844 L 326.117188 50.136719 C 324.402344 45.355469 321.550781 41.121094 317.882813 37.757813 L 317.3125 37.644531 C 314.957031 37.1875 312.632813 36.898438 310.289063 36.734375 C 309.628906 38.910156 308.984375 42.695313 308.5 45.210938 Z M 294.789063 31.171875 C 294.558594 30.691406 294.324219 30.214844 294.089844 29.738281 C 287.484375 30.34375 281.476563 33.023438 276.726563 37.121094 C 276.824219 37.796875 276.96875 38.457031 277.152344 39.210938 C 280.480469 38.082031 284.113281 37.34375 287.585938 36.960938 C 289.507813 34.851563 291.777344 33.039063 294.789063 31.171875 Z M 296.015625 29.621094 C 296.230469 30.054688 296.4375 30.488281 296.640625 30.925781 C 300.609375 31.769531 304.808594 33.015625 308.675781 34.855469 C 310.816406 34.953125 312.933594 35.144531 315.058594 35.453125 C 309.964844 31.777344 303.710938 29.609375 296.949219 29.609375 C 296.636719 29.609375 296.328125 29.613281 296.015625 29.621094 Z M 326.15625 68.886719 C 326.351563 68.957031 326.546875 69.023438 326.742188 69.089844 C 327.511719 66.386719 327.925781 63.535156 327.925781 60.585938 C 327.925781 58.167969 327.648438 55.8125 327.121094 53.550781 C 326.734375 54.914063 326.277344 56.269531 325.792969 57.582031 C 326.339844 61.347656 326.378906 65.117188 326.15625 68.886719 "/>
<path style=" stroke:none;fill-rule:evenodd;fill:rgb(100%,100%,100%);fill-opacity:1;" d="M 297.382813 85.367188 C 366.046875 85.367188 421.734375 141.054688 421.734375 209.71875 C 421.734375 278.382813 366.046875 334.070313 297.382813 334.070313 C 228.71875 334.070313 173.03125 278.382813 173.03125 209.71875 C 173.03125 141.054688 228.71875 85.367188 297.382813 85.367188 Z M 210.257813 252.582031 C 267.421875 247.5625 324.582031 246.210938 381.746094 252.582031 C 362.621094 289.199219 330.273438 307.132813 296.917969 306.894531 C 262.828125 306.652344 226.9375 287.773438 210.257813 252.582031 "/>
<path style=" stroke:none;fill-rule:evenodd;fill:rgb(13.699341%,12.199402%,12.5%);fill-opacity:1;" d="M 296.726563 82.320313 C 367.050781 82.320313 424.078125 139.347656 424.078125 209.671875 C 424.078125 279.992188 367.050781 337.023438 296.726563 337.023438 C 226.402344 337.023438 169.375 279.992188 169.375 209.671875 C 169.375 139.347656 226.402344 82.320313 296.726563 82.320313 Z M 296.726563 88.015625 C 363.902344 88.015625 418.378906 142.496094 418.378906 209.671875 C 418.378906 276.847656 363.902344 331.324219 296.726563 331.324219 C 229.550781 331.324219 175.070313 276.847656 175.070313 209.671875 C 175.070313 142.496094 229.550781 88.015625 296.726563 88.015625 Z M 295.484375 113.871094 C 349.460938 113.871094 393.230469 157.644531 393.230469 211.617188 C 393.230469 265.59375 349.460938 309.367188 295.484375 309.367188 C 241.507813 309.367188 197.738281 265.59375 197.738281 211.617188 C 197.738281 157.644531 241.507813 113.871094 295.484375 113.871094 Z M 211.625 249.617188 C 267.878906 243.390625 323.785156 243.039063 379.285156 249.738281 C 384.578125 238.121094 387.535156 225.214844 387.535156 211.617188 C 387.535156 160.789063 346.3125 119.570313 295.484375 119.570313 C 244.65625 119.570313 203.433594 160.789063 203.433594 211.617188 C 203.433594 225.167969 206.367188 238.03125 211.625 249.617188 Z M 376.703125 254.957031 C 322.539063 249.042969 268.375 249.34375 214.210938 254.855469 C 229.695313 283.894531 260.28125 303.667969 295.484375 303.667969 C 330.644531 303.667969 361.199219 283.941406 376.703125 254.957031 "/>
<path style=" stroke:none;fill-rule:evenodd;fill:rgb(13.699341%,12.199402%,12.5%);fill-opacity:1;" d="M 286.441406 536.46875 L 270.722656 529.820313 L 281.199219 403.308594 L 288.832031 408.488281 L 286.441406 536.46875 "/>
<path style=" stroke:none;fill-rule:evenodd;fill:rgb(100%,100%,100%);fill-opacity:1;" d="M 282.957031 534.992188 L 267.328125 528.382813 L 277.6875 403.308594 L 285.320313 408.488281 L 282.957031 534.992188 "/>
<path style=" stroke:none;fill-rule:evenodd;fill:rgb(13.699341%,12.199402%,12.5%);fill-opacity:1;" d="M 215.96875 506.65625 L 201.578125 500.570313 L 235.941406 379.234375 L 242.351563 381.671875 L 215.96875 506.65625 "/>
<path style=" stroke:none;fill-rule:evenodd;fill:rgb(100%,100%,100%);fill-opacity:1;" d="M 212.984375 505.398438 L 198.617188 499.320313 L 232.886719 378.316406 L 239.296875 380.753906 L 212.984375 505.398438 "/>
<path style=" stroke:none;fill-rule:evenodd;fill:rgb(13.699341%,12.199402%,12.5%);fill-opacity:1;" d="M 247.746094 520.101563 L 237.394531 515.71875 L 258.035156 389.289063 L 263.839844 392.945313 L 247.746094 520.101563 "/>
<path style=" stroke:none;fill-rule:evenodd;fill:rgb(100%,100%,100%);fill-opacity:1;" d="M 244.703125 518.8125 L 234.394531 514.453125 L 254.828125 389.289063 L 260.632813 392.945313 L 244.703125 518.8125 "/>
<path style=" stroke:none;fill-rule:evenodd;fill:rgb(13.699341%,12.199402%,12.5%);fill-opacity:1;" d="M 323.085938 530.261719 L 307.339844 537.078125 L 304.9375 408.488281 L 312.570313 403.308594 L 323.085938 530.261719 "/>
<path style=" stroke:none;fill-rule:evenodd;fill:rgb(100%,100%,100%);fill-opacity:1;" d="M 326.476563 528.792969 L 310.824219 535.570313 L 308.453125 408.488281 L 316.082031 403.308594 L 326.476563 528.792969 "/>
<path style=" stroke:none;fill-rule:evenodd;fill:rgb(13.699341%,12.199402%,12.5%);fill-opacity:1;" d="M 392.132813 500.355469 L 377.785156 506.570313 L 351.417969 381.671875 L 357.832031 379.234375 L 392.132813 500.355469 "/>
<path style=" stroke:none;fill-rule:evenodd;fill:rgb(100%,100%,100%);fill-opacity:1;" d="M 395.085938 499.078125 L 380.761719 505.28125 L 354.472656 380.753906 L 360.886719 378.316406 L 395.085938 499.078125 "/>
<path style=" stroke:none;fill-rule:evenodd;fill:rgb(13.699341%,12.199402%,12.5%);fill-opacity:1;" d="M 356.394531 515.832031 L 346.050781 520.3125 L 329.933594 392.945313 L 335.734375 389.289063 L 356.394531 515.832031 "/>
<path style=" stroke:none;fill-rule:evenodd;fill:rgb(100%,100%,100%);fill-opacity:1;" d="M 359.390625 514.535156 L 349.089844 518.996094 L 333.140625 392.945313 L 338.941406 389.289063 L 359.390625 514.535156 "/>
<path style=" stroke:none;fill-rule:evenodd;fill:rgb(13.699341%,12.199402%,12.5%);fill-opacity:1;" d="M 182.683594 492.578125 L 169.78125 487.121094 L 217.34375 371.613281 L 222.839844 372.832031 L 182.683594 492.578125 "/>
<path style=" stroke:none;fill-rule:evenodd;fill:rgb(13.699341%,12.199402%,12.5%);fill-opacity:1;" d="M 423.792969 486.640625 L 410.960938 492.199219 L 370.933594 372.832031 L 376.429688 371.613281 L 423.792969 486.640625 "/>
<path style=" stroke:none;fill-rule:evenodd;fill:rgb(100%,100%,100%);fill-opacity:1;" d="M 179.136719 333.746094 L 414.089844 333.746094 L 414.089844 366.09375 C 367.371094 375.855469 318.207031 399.65625 297.730469 424.679688 C 267.960938 397.824219 225.378906 374.027344 179.136719 366.09375 L 179.136719 333.746094 "/>
<path style=" stroke:none;fill-rule:evenodd;fill:rgb(13.699341%,12.199402%,12.5%);fill-opacity:1;" d="M 188.035156 358.957031 C 192.648438 359.917969 197.257813 360.800781 201.839844 362.0625 C 236.382813 371.578125 269.769531 389.449219 297.007813 412.257813 C 323.039063 386.253906 369.902344 367.421875 405.1875 358.96875 L 188.035156 358.957031 "/>
<path style=" stroke:none;fill-rule:evenodd;fill:rgb(100%,100%,100%);fill-opacity:1;" d="M 247.484375 373.019531 C 266.226563 379.441406 283.121094 385.070313 297.519531 400.164063 C 314.089844 383.523438 330.828125 378.761719 347.78125 372.84375 C 350.054688 372.050781 350.613281 369.152344 347.476563 369.476563 C 314.03125 372.910156 280.488281 372.710938 247.453125 369.214844 C 244.921875 368.949219 244.605469 372.035156 247.484375 373.019531 "/>
<path style=" stroke:none;fill-rule:evenodd;fill:rgb(13.699341%,12.199402%,12.5%);fill-opacity:1;" d="M 184.628906 339.242188 L 237.078125 339.242188 L 237.078125 350.835938 L 184.628906 350.835938 Z M 241.148438 339.242188 L 248.660156 339.242188 L 248.660156 350.835938 L 241.148438 350.835938 Z M 252.730469 339.242188 L 295.902344 339.242188 L 295.902344 350.835938 L 252.730469 350.835938 Z M 299.972656 339.242188 L 340.703125 339.242188 L 340.703125 350.835938 L 299.972656 350.835938 Z M 344.773438 339.242188 L 352.589844 339.242188 L 352.589844 350.835938 L 344.773438 350.835938 Z M 356.660156 339.242188 L 408.597656 339.242188 L 408.597656 350.835938 L 356.660156 350.835938 L 356.660156 339.242188 "/>
<path style=" stroke:none;fill-rule:evenodd;fill:rgb(100%,100%,100%);fill-opacity:1;" d="M 179.570313 491.261719 L 166.714844 485.824219 L 213.988281 371.003906 L 219.488281 372.222656 L 179.570313 491.261719 "/>
<path style=" stroke:none;fill-rule:evenodd;fill:rgb(100%,100%,100%);fill-opacity:1;" d="M 426.851563 485.316406 L 414.066406 490.855469 L 374.285156 372.222656 L 379.78125 371.003906 L 426.851563 485.316406 "/>
<path style=" stroke:none;fill-rule:evenodd;fill:rgb(13.699341%,12.199402%,12.5%);fill-opacity:1;" d="M 195.148438 366.742188 C 208.191406 366.742188 218.769531 377.320313 218.769531 390.363281 C 218.769531 403.40625 208.191406 413.984375 195.148438 413.984375 C 182.105469 413.984375 171.527344 403.40625 171.527344 390.363281 C 171.527344 377.320313 182.105469 366.742188 195.148438 366.742188 "/>
<path style=" stroke:none;fill-rule:evenodd;fill:rgb(100%,100%,100%);fill-opacity:1;" d="M 193.164063 367.964844 C 205.113281 367.964844 214.804688 378.265625 214.804688 390.972656 C 214.804688 403.679688 205.113281 413.984375 193.164063 413.984375 C 181.21875 413.984375 171.527344 403.679688 171.527344 390.972656 C 171.527344 378.265625 181.21875 367.964844 193.164063 367.964844 Z M 193.164063 373.660156 C 201.96875 373.660156 209.109375 381.414063 209.109375 390.972656 C 209.109375 400.535156 201.96875 408.285156 193.164063 408.285156 C 184.363281 408.285156 177.222656 400.535156 177.222656 390.972656 C 177.222656 381.414063 184.363281 373.660156 193.164063 373.660156 "/>
<path style=" stroke:none;fill-rule:evenodd;fill:rgb(13.699341%,12.199402%,12.5%);fill-opacity:1;" d="M 399.09375 366.742188 C 386.050781 366.742188 375.472656 377.320313 375.472656 390.363281 C 375.472656 403.40625 386.050781 413.984375 399.09375 413.984375 C 412.136719 413.984375 422.714844 403.40625 422.714844 390.363281 C 422.714844 377.320313 412.136719 366.742188 399.09375 366.742188 "/>
<path style=" stroke:none;fill-rule:evenodd;fill:rgb(100%,100%,100%);fill-opacity:1;" d="M 401.074219 367.964844 C 389.125 367.964844 379.433594 378.265625 379.433594 390.972656 C 379.433594 403.679688 389.125 413.984375 401.074219 413.984375 C 413.023438 413.984375 422.714844 403.679688 422.714844 390.972656 C 422.714844 378.265625 413.023438 367.964844 401.074219 367.964844 Z M 401.074219 373.660156 C 392.269531 373.660156 385.132813 381.414063 385.132813 390.972656 C 385.132813 400.535156 392.269531 408.285156 401.074219 408.285156 C 409.878906 408.285156 417.015625 400.535156 417.015625 390.972656 C 417.015625 381.414063 409.878906 373.660156 401.074219 373.660156 "/>
<path style=" stroke:none;fill-rule:evenodd;fill:rgb(13.699341%,12.199402%,12.5%);fill-opacity:1;" d="M 518.238281 286.226563 C 516.347656 310.09375 509.359375 349.992188 500.71875 380.847656 C 490.617188 416.933594 477.382813 451.601563 458.722656 484.347656 L 457.644531 486.246094 L 297.730469 581.519531 L 136.773438 486.238281 C 103.304688 427.582031 84.695313 357.773438 77.320313 289.0625 C 71.15625 231.652344 82.957031 123.320313 97.5625 73.359375 C 152.273438 37.917969 226.855469 14.589844 297.730469 14.589844 C 369.324219 14.589844 439.511719 36.496094 497.976563 73.34375 C 515.96875 146.21875 522.863281 227.871094 518.238281 286.226563 Z M 103.871094 77.855469 C 156.992188 45.507813 218.980469 27.445313 277.886719 24.109375 C 283.9375 21.703125 291.164063 20.496094 297.730469 20.496094 C 303.789063 20.496094 309.855469 22.070313 315.933594 23.996094 C 374.675781 26.925781 434.140625 44.121094 491.59375 77.855469 C 505.414063 149.339844 513.425781 220.195313 507.179688 292.929688 C 502.089844 352.1875 490.34375 408.507813 460.515625 466.140625 C 457.988281 471.023438 455.328125 475.917969 452.535156 480.824219 L 297.730469 557.109375 L 141.90625 480.824219 C 108.378906 420.617188 87.890625 348.3125 86 258.765625 C 84.863281 205.039063 89.203125 145.105469 103.871094 77.855469 "/>
<path style=" stroke:none;fill-rule:nonzero;fill:rgb(13.699341%,12.199402%,12.5%);fill-opacity:1;" d="M 263.847656 315.570313 L 267.355469 318.101563 C 266.714844 319.109375 265.984375 319.882813 265.164063 320.421875 C 264.347656 320.964844 263.453125 321.277344 262.484375 321.363281 C 261.519531 321.453125 260.386719 321.269531 259.09375 320.824219 C 257.523438 320.285156 256.316406 319.613281 255.480469 318.816406 C 254.640625 318.015625 254.058594 316.914063 253.730469 315.515625 C 253.40625 314.117188 253.550781 312.519531 254.167969 310.726563 C 254.992188 308.335938 256.261719 306.714844 257.972656 305.871094 C 259.6875 305.023438 261.710938 305 264.035156 305.800781 C 265.855469 306.425781 267.160156 307.285156 267.949219 308.382813 C 268.738281 309.480469 269.121094 310.875 269.105469 312.574219 L 264.855469 312.09375 C 264.871094 311.605469 264.839844 311.230469 264.757813 310.976563 C 264.625 310.550781 264.410156 310.183594 264.113281 309.871094 C 263.8125 309.5625 263.441406 309.332031 262.992188 309.179688 C 261.984375 308.828125 261.066406 308.96875 260.246094 309.597656 C 259.632813 310.066406 259.097656 310.941406 258.652344 312.238281 C 258.101563 313.84375 257.96875 315.023438 258.246094 315.789063 C 258.53125 316.550781 259.113281 317.082031 259.988281 317.382813 C 260.84375 317.679688 261.574219 317.660156 262.175781 317.332031 C 262.777344 317.003906 263.335938 316.414063 263.847656 315.570313 "/>
<path style=" stroke:none;fill-rule:nonzero;fill:rgb(13.699341%,12.199402%,12.5%);fill-opacity:1;" d="M 281.742188 310.675781 L 286.449219 311.089844 L 285.445313 322.566406 L 292.789063 323.207031 L 292.460938 326.960938 L 280.410156 325.902344 L 281.742188 310.675781 "/>
<path style=" stroke:none;fill-rule:nonzero;fill:rgb(13.699341%,12.199402%,12.5%);fill-opacity:1;" d="M 315.480469 310.3125 L 320.148438 309.652344 L 321.417969 318.679688 C 321.542969 319.574219 321.519531 320.4375 321.355469 321.273438 C 321.1875 322.105469 320.847656 322.863281 320.339844 323.542969 C 319.824219 324.222656 319.257813 324.726563 318.636719 325.0625 C 317.777344 325.523438 316.710938 325.847656 315.433594 326.027344 C 314.699219 326.128906 313.890625 326.191406 313.003906 326.210938 C 312.117188 326.230469 311.363281 326.128906 310.734375 325.902344 C 310.105469 325.679688 309.511719 325.316406 308.945313 324.820313 C 308.378906 324.324219 307.964844 323.789063 307.703125 323.214844 C 307.277344 322.296875 307.011719 321.464844 306.910156 320.71875 L 305.640625 311.691406 L 310.308594 311.035156 L 311.609375 320.277344 C 311.726563 321.105469 312.046875 321.71875 312.5625 322.117188 C 313.089844 322.515625 313.753906 322.660156 314.570313 322.546875 C 315.371094 322.433594 315.972656 322.113281 316.367188 321.59375 C 316.757813 321.074219 316.894531 320.390625 316.777344 319.550781 L 315.480469 310.3125 "/>
<path style=" stroke:none;fill-rule:nonzero;fill:rgb(13.699341%,12.199402%,12.5%);fill-opacity:1;" d="M 337.363281 303.503906 L 341.753906 301.730469 L 344.863281 309.433594 C 345.519531 311.050781 345.871094 312.339844 345.925781 313.300781 C 345.980469 314.261719 345.695313 315.210938 345.0625 316.144531 C 344.429688 317.082031 343.441406 317.824219 342.089844 318.371094 C 340.65625 318.949219 339.46875 319.203125 338.527344 319.132813 C 337.582031 319.066406 336.746094 318.746094 336.019531 318.171875 C 335.292969 317.605469 334.664063 316.785156 334.148438 315.722656 L 338.101563 313.460938 C 338.359375 314.078125 338.605469 314.523438 338.828125 314.785156 C 339.054688 315.046875 339.328125 315.222656 339.644531 315.308594 C 339.863281 315.363281 340.128906 315.328125 340.4375 315.203125 C 340.925781 315.007813 341.210938 314.679688 341.296875 314.222656 C 341.375 313.765625 341.242188 313.105469 340.894531 312.242188 L 337.363281 303.503906 "/>
<path style=" stroke:none;fill-rule:nonzero;fill:rgb(13.699341%,12.199402%,12.5%);fill-opacity:1;" d="M 220.605469 123.507813 L 229.269531 116.738281 L 231.171875 119.175781 L 226.027344 123.195313 L 227.574219 125.175781 L 231.96875 121.742188 L 233.753906 124.03125 L 229.363281 127.464844 L 232.980469 132.09375 L 229.464844 134.84375 L 220.605469 123.507813 "/>
<path style=" stroke:none;fill-rule:nonzero;fill:rgb(13.699341%,12.199402%,12.5%);fill-opacity:1;" d="M 234.726563 121.605469 C 233.445313 119.632813 233 117.742188 233.386719 115.9375 C 233.769531 114.125 234.941406 112.582031 236.898438 111.3125 C 238.910156 110.007813 240.808594 109.542969 242.59375 109.914063 C 244.378906 110.285156 245.902344 111.445313 247.164063 113.386719 C 248.078125 114.796875 248.59375 116.109375 248.703125 117.316406 C 248.816406 118.527344 248.585938 119.675781 248.015625 120.761719 C 247.445313 121.847656 246.492188 122.820313 245.152344 123.691406 C 243.789063 124.574219 242.523438 125.089844 241.351563 125.238281 C 240.175781 125.378906 239.011719 125.160156 237.84375 124.585938 C 236.683594 124.007813 235.640625 123.015625 234.726563 121.605469 Z M 238.46875 119.199219 C 239.257813 120.417969 240.050781 121.144531 240.851563 121.386719 C 241.648438 121.621094 242.4375 121.488281 243.214844 120.980469 C 244.015625 120.460938 244.46875 119.796875 244.566406 118.992188 C 244.667969 118.1875 244.28125 117.105469 243.40625 115.757813 C 242.667969 114.621094 241.898438 113.941406 241.097656 113.714844 C 240.304688 113.488281 239.511719 113.628906 238.726563 114.140625 C 237.976563 114.628906 237.542969 115.285156 237.433594 116.113281 C 237.324219 116.941406 237.667969 117.96875 238.46875 119.199219 "/>
<path style=" stroke:none;fill-rule:nonzero;fill:rgb(13.699341%,12.199402%,12.5%);fill-opacity:1;" d="M 245.050781 106.757813 L 257.394531 101.261719 L 258.839844 104.507813 L 254.695313 106.351563 L 259.101563 116.246094 L 255.042969 118.054688 L 250.636719 108.160156 L 246.496094 110.003906 L 245.050781 106.757813 "/>
<path style=" stroke:none;fill-rule:nonzero;fill:rgb(13.699341%,12.199402%,12.5%);fill-opacity:1;" d="M 259.839844 100.625 L 267.839844 98.332031 C 269.171875 97.949219 270.289063 97.984375 271.191406 98.441406 C 272.09375 98.898438 272.6875 99.613281 272.96875 100.585938 C 273.199219 101.402344 273.148438 102.175781 272.808594 102.910156 C 272.578125 103.394531 272.171875 103.847656 271.582031 104.261719 C 272.640625 104.214844 273.488281 104.417969 274.128906 104.863281 C 274.761719 105.3125 275.203125 105.972656 275.457031 106.851563 C 275.664063 107.570313 275.679688 108.265625 275.511719 108.933594 C 275.34375 109.601563 275.019531 110.183594 274.535156 110.683594 C 274.234375 110.992188 273.738281 111.296875 273.039063 111.597656 C 272.113281 112 271.496094 112.246094 271.179688 112.339844 L 263.804688 114.453125 Z M 265.703125 104.8125 L 267.5625 104.28125 C 268.230469 104.089844 268.660156 103.839844 268.859375 103.535156 C 269.050781 103.230469 269.085938 102.863281 268.960938 102.429688 C 268.847656 102.027344 268.628906 101.75 268.300781 101.597656 C 267.972656 101.445313 267.488281 101.464844 266.839844 101.648438 L 264.953125 102.1875 Z M 267.261719 110.246094 L 269.441406 109.621094 C 270.179688 109.410156 270.660156 109.132813 270.886719 108.785156 C 271.113281 108.4375 271.164063 108.042969 271.039063 107.601563 C 270.921875 107.191406 270.675781 106.90625 270.308594 106.746094 C 269.9375 106.582031 269.378906 106.605469 268.628906 106.820313 L 266.460938 107.445313 L 267.261719 110.246094 "/>
<path style=" stroke:none;fill-rule:nonzero;fill:rgb(13.699341%,12.199402%,12.5%);fill-opacity:1;" d="M 286.621094 107.023438 L 281.59375 107.644531 L 281.191406 110.085938 L 276.683594 110.640625 L 280.296875 95.699219 L 285.105469 95.109375 L 292.230469 108.730469 L 287.609375 109.296875 Z M 285.316406 104.050781 L 283.105469 99.109375 L 282.167969 104.4375 Z M 285.316406 104.050781 "/>
<path style=" stroke:none;fill-rule:nonzero;fill:rgb(13.699341%,12.199402%,12.5%);fill-opacity:1;" d="M 293.964844 94.445313 L 298.414063 94.445313 L 298.414063 105.289063 L 305.351563 105.289063 L 305.351563 108.832031 L 293.964844 108.832031 L 293.964844 94.445313 "/>
<path style=" stroke:none;fill-rule:nonzero;fill:rgb(13.699341%,12.199402%,12.5%);fill-opacity:1;" d="M 326.640625 106.785156 L 330.207031 108.75 C 329.726563 109.761719 329.132813 110.570313 328.429688 111.171875 C 327.726563 111.769531 326.929688 112.164063 326.035156 112.355469 C 325.140625 112.550781 324.0625 112.507813 322.804688 112.242188 C 321.277344 111.914063 320.070313 111.425781 319.199219 110.78125 C 318.324219 110.128906 317.652344 109.167969 317.183594 107.894531 C 316.722656 106.625 316.671875 105.121094 317.042969 103.371094 C 317.539063 101.042969 318.539063 99.382813 320.042969 98.398438 C 321.546875 97.410156 323.433594 97.15625 325.695313 97.636719 C 327.46875 98.015625 328.785156 98.667969 329.648438 99.601563 C 330.511719 100.535156 331.03125 101.796875 331.207031 103.382813 L 327.1875 103.421875 C 327.144531 102.964844 327.070313 102.621094 326.964844 102.390625 C 326.792969 102.007813 326.546875 101.6875 326.234375 101.433594 C 325.921875 101.179688 325.546875 101.007813 325.109375 100.914063 C 324.128906 100.703125 323.285156 100.941406 322.59375 101.621094 C 322.070313 102.128906 321.675781 103.007813 321.40625 104.269531 C 321.074219 105.832031 321.085938 106.953125 321.4375 107.632813 C 321.789063 108.3125 322.390625 108.742188 323.246094 108.925781 C 324.078125 109.101563 324.757813 109.003906 325.28125 108.625 C 325.808594 108.25 326.261719 107.636719 326.640625 106.785156 "/>
<path style=" stroke:none;fill-rule:nonzero;fill:rgb(13.699341%,12.199402%,12.5%);fill-opacity:1;" d="M 335.164063 100.753906 L 339.316406 102.34375 L 335.429688 112.46875 L 341.90625 114.953125 L 340.636719 118.261719 L 330.007813 114.183594 L 335.164063 100.753906 "/>
<path style=" stroke:none;fill-rule:nonzero;fill:rgb(13.699341%,12.199402%,12.5%);fill-opacity:1;" d="M 356.5625 110.746094 L 360.445313 112.898438 L 356.285156 120.398438 C 355.875 121.144531 355.367188 121.78125 354.769531 122.3125 C 354.175781 122.84375 353.488281 123.222656 352.71875 123.441406 C 351.949219 123.664063 351.238281 123.722656 350.582031 123.621094 C 349.671875 123.480469 348.6875 123.121094 347.628906 122.53125 C 347.015625 122.191406 346.371094 121.78125 345.695313 121.292969 C 345.019531 120.808594 344.511719 120.300781 344.164063 119.777344 C 343.820313 119.253906 343.578125 118.644531 343.433594 117.949219 C 343.289063 117.257813 343.28125 116.621094 343.40625 116.039063 C 343.609375 115.109375 343.882813 114.332031 344.226563 113.714844 L 348.382813 106.210938 L 352.265625 108.363281 L 348.007813 116.046875 C 347.628906 116.734375 347.519531 117.375 347.6875 117.96875 C 347.851563 118.566406 348.273438 119.050781 348.949219 119.425781 C 349.617188 119.796875 350.25 119.898438 350.839844 119.730469 C 351.429688 119.5625 351.921875 119.125 352.308594 118.429688 L 356.5625 110.746094 "/>
<path style=" stroke:none;fill-rule:nonzero;fill:rgb(13.699341%,12.199402%,12.5%);fill-opacity:1;" d="M 364.246094 115.464844 L 370.714844 120.703125 C 371.792969 121.574219 372.402344 122.515625 372.546875 123.511719 C 372.691406 124.515625 372.445313 125.410156 371.808594 126.195313 C 371.273438 126.859375 370.609375 127.257813 369.8125 127.398438 C 369.28125 127.492188 368.679688 127.414063 368.003906 127.171875 C 368.648438 128.011719 368.96875 128.824219 368.972656 129.601563 C 368.96875 130.378906 368.679688 131.121094 368.101563 131.832031 C 367.632813 132.410156 367.074219 132.824219 366.433594 133.070313 C 365.785156 133.3125 365.125 133.382813 364.4375 133.273438 C 364.011719 133.203125 363.476563 132.972656 362.828125 132.574219 C 361.96875 132.046875 361.410156 131.679688 361.15625 131.472656 L 355.191406 126.644531 Z M 364.179688 122.671875 L 365.683594 123.890625 C 366.222656 124.324219 366.671875 124.535156 367.035156 124.523438 C 367.398438 124.507813 367.71875 124.324219 368 123.976563 C 368.265625 123.648438 368.367188 123.308594 368.304688 122.957031 C 368.238281 122.597656 367.945313 122.210938 367.425781 121.785156 L 365.898438 120.550781 Z M 360.625 127.066406 L 362.386719 128.492188 C 362.980469 128.976563 363.484375 129.210938 363.898438 129.195313 C 364.3125 129.183594 364.664063 128.996094 364.953125 128.640625 C 365.222656 128.308594 365.316406 127.949219 365.238281 127.550781 C 365.160156 127.15625 364.820313 126.710938 364.214844 126.222656 L 362.457031 124.800781 L 360.625 127.066406 "/>
<path style=" stroke:none;fill-rule:evenodd;fill:rgb(13.699341%,12.199402%,12.5%);fill-opacity:1;" d="M 237.84375 151.542969 L 238.734375 148.082031 L 257.964844 145.484375 L 257.964844 146.316406 L 261.148438 146.039063 C 281.574219 144.269531 302.113281 144.527344 322.574219 145.480469 L 325.425781 145.613281 L 325.425781 145.472656 L 326.917969 145.683594 L 329.773438 145.816406 L 329.773438 146.085938 L 334.035156 146.6875 C 349.386719 148.855469 364.695313 151.371094 379.753906 155.089844 C 380.722656 155.328125 381.683594 155.597656 382.636719 155.890625 C 390.402344 158.289063 397.960938 162.671875 402.464844 169.621094 C 405.535156 174.351563 406.820313 179.742188 406.417969 185.351563 C 406.097656 189.796875 404.347656 194.089844 400.996094 197.105469 C 400.199219 197.820313 399.355469 198.464844 398.46875 199.035156 C 399.03125 199.804688 399.539063 200.613281 399.976563 201.460938 C 401.863281 205.132813 402.367188 209.421875 402.691406 213.484375 C 402.691406 213.503906 402.691406 213.519531 402.695313 213.535156 L 416.546875 216.746094 L 416.546875 222.75 C 416.546875 224.324219 416.457031 225.894531 416.351563 227.464844 C 416.015625 232.355469 414.417969 237.753906 410.578125 241.050781 C 404.527344 246.253906 395.332031 245.496094 388.367188 242.746094 C 382.28125 240.347656 377.746094 236.175781 375.363281 230.5625 L 375.363281 238.949219 L 366.367188 237.199219 C 360.53125 236.066406 354.617188 235.328125 348.722656 234.582031 C 343.273438 233.890625 337.820313 233.253906 332.355469 232.703125 L 325.5625 232.011719 L 325.566406 211.953125 L 334.113281 212.203125 C 335.820313 212.253906 335.648438 211.871094 335.648438 210.703125 L 335.648438 170.074219 C 335.648438 167.15625 335.785156 167.339844 332.75 167.246094 L 329.777344 167.15625 L 329.777344 187.382813 L 312.484375 186.640625 L 312.472656 209.054688 L 294.3125 208.96875 C 294.148438 209.332031 294.144531 210.210938 295.304688 210.191406 L 304.871094 210.65625 L 304.867188 230.632813 L 297.292969 230.609375 C 285.589844 230.570313 273.890625 231.019531 262.210938 231.652344 L 254.445313 232.074219 L 254.078125 217.5625 C 247.644531 231.382813 233.269531 238.621094 215.941406 239.503906 C 206.050781 240.007813 196.132813 237.625 188.933594 230.464844 C 182.046875 223.613281 179.515625 213.773438 179.753906 204.289063 C 180.105469 190.378906 183.828125 179.296875 192.484375 168.355469 C 201.289063 157.214844 214.046875 149.648438 228.519531 149.945313 C 232.027344 150.015625 234.886719 150.46875 237.84375 151.542969 Z M 257.953125 166.738281 L 257.949219 186.421875 L 237.863281 189.175781 L 236.992188 181.496094 C 236.9375 181.035156 236.878906 180.574219 236.804688 180.117188 C 236.050781 175.265625 234.265625 170.132813 228.480469 170.34375 C 225.199219 170.460938 222.4375 171.480469 220.082031 173.804688 C 214.632813 179.171875 212.824219 189.808594 212.445313 197.152344 C 212.234375 201.144531 213.140625 206.488281 214.574219 210.222656 C 215.839844 213.519531 217.761719 216.851563 221.699219 216.941406 C 230.414063 217.140625 235.839844 209.007813 236.335938 201.023438 L 236.722656 194.808594 L 257.851563 192.058594 L 257.699219 200.808594 C 257.632813 204.671875 257.136719 208.246094 256.261719 211.527344 L 261.214844 211.230469 C 264.101563 211.058594 264.289063 211.242188 264.292969 208.484375 L 264.355469 167.742188 C 264.359375 165.8125 264.300781 166.269531 262.355469 166.414063 Z M 373.242188 217.9375 C 373.1875 215.792969 373.1875 213.648438 373.121094 211.5 C 373.0625 209.445313 373.050781 207.28125 372.699219 205.253906 C 372.476563 203.953125 369.734375 203.460938 368.710938 203.277344 L 365.464844 202.699219 L 365.441406 214.46875 C 365.4375 216.457031 366.070313 216.484375 367.007813 216.828125 Z M 365.480469 182.804688 C 365.902344 182.855469 366.320313 182.910156 366.738281 182.964844 C 369.3125 183.296875 371.894531 183.546875 374.445313 184.015625 C 374.726563 184.066406 375.542969 184.191406 375.777344 184.066406 C 376.128906 183.625 376.332031 182.65625 376.316406 182.105469 C 376.175781 176.550781 374.269531 174.304688 368.886719 173.015625 C 367.753906 172.742188 366.621094 172.480469 365.480469 172.230469 L 365.480469 182.804688 "/>
<path style=" stroke:none;fill-rule:evenodd;fill:rgb(100%,100%,100%);fill-opacity:1;" d="M 239.757813 155.453125 L 241.003906 150.636719 L 255.128906 148.726563 L 255.117188 183.953125 L 240.351563 185.976563 L 239.804688 181.175781 C 239.023438 174.308594 236.382813 167.222656 228.378906 167.511719 C 224.382813 167.65625 220.957031 168.964844 218.097656 171.785156 C 212.046875 177.746094 210.039063 188.894531 209.617188 197.003906 C 209.390625 201.347656 210.386719 207.210938 211.929688 211.234375 C 213.644531 215.714844 216.421875 219.65625 221.632813 219.773438 C 231.886719 220.003906 238.566406 210.773438 239.164063 201.199219 L 239.40625 197.3125 L 254.960938 195.289063 L 254.867188 200.757813 C 254.464844 224.054688 237.601563 235.566406 215.796875 236.675781 C 206.714844 237.140625 197.546875 235.035156 190.933594 228.457031 C 184.585938 222.144531 182.363281 213.074219 182.585938 204.359375 C 182.921875 190.992188 186.464844 180.53125 194.703125 170.109375 C 202.960938 159.667969 214.859375 152.5 228.464844 152.777344 C 233.523438 152.878906 236.480469 153.828125 239.757813 155.453125 "/>
<path style=" stroke:none;fill-rule:nonzero;fill:rgb(70.199585%,20.399475%,35.699463%);fill-opacity:1;" d="M 250.40625 154.128906 L 250.398438 179.835938 L 244.496094 180.644531 C 243.167969 168.964844 237.371094 162.460938 228.207031 162.792969 C 209.480469 163.472656 205.519531 184.859375 204.902344 196.757813 C 204.597656 202.582031 206.398438 224.152344 221.527344 224.492188 C 233.382813 224.761719 243.046875 214.789063 243.875 201.492188 L 250.148438 200.675781 C 249.789063 221.417969 234.867188 230.980469 215.554688 231.960938 C 205.703125 232.464844 198.742188 229.566406 194.261719 225.109375 C 188.851563 219.730469 187.117188 211.898438 187.304688 204.480469 C 187.648438 190.800781 191.601563 181.648438 198.40625 173.039063 C 205.652344 163.875 216.132813 157.246094 228.367188 157.496094 C 235.175781 157.636719 237.742188 159.710938 242.828125 162.453125 L 244.78125 154.886719 L 250.40625 154.128906 "/>
<path style=" stroke:none;fill-rule:evenodd;fill:rgb(100%,100%,100%);fill-opacity:1;" d="M 362.640625 199.316406 L 362.605469 215.6875 C 362.601563 218.304688 362.761719 218.953125 365.390625 219.417969 L 372.527344 220.6875 L 372.527344 235.511719 L 366.90625 234.421875 C 361.066406 233.285156 354.984375 232.519531 349.078125 231.773438 C 343.609375 231.078125 338.125 230.4375 332.640625 229.882813 L 328.394531 229.453125 L 328.398438 214.871094 L 335.933594 215.09375 C 337.589844 215.242188 338.480469 214.996094 338.480469 212.769531 C 338.480469 197.820313 338.480469 182.871094 338.480469 167.921875 C 338.480469 164.0625 336.546875 164.527344 332.835938 164.414063 L 328.261719 164.273438 L 328.257813 148.734375 L 333.640625 149.492188 C 348.914063 151.652344 364.085938 154.140625 379.074219 157.839844 C 379.988281 158.066406 380.898438 158.320313 381.800781 158.597656 C 388.910156 160.792969 395.957031 164.789063 400.089844 171.160156 C 402.824219 175.378906 403.953125 180.144531 403.59375 185.148438 C 403.328125 188.855469 401.902344 192.480469 399.101563 194.996094 C 397.507813 196.433594 395.78125 197.457031 393.96875 198.179688 C 395.40625 199.585938 396.617188 201.121094 397.457031 202.757813 C 399.136719 206.019531 399.578125 210.089844 399.867188 213.710938 C 400.0625 216.160156 400.078125 218.585938 400.089844 221.039063 C 400.097656 222.605469 400.078125 224.363281 400.328125 225.914063 C 400.398438 226.320313 400.613281 226.953125 401 227.230469 C 401.519531 225.886719 401.652344 223.105469 401.660156 222.109375 L 401.703125 216.214844 L 413.714844 219 L 413.714844 222.75 C 413.714844 224.28125 413.628906 225.742188 413.523438 227.269531 C 413.242188 231.371094 411.953125 236.136719 408.734375 238.902344 C 403.550781 243.359375 395.347656 242.457031 389.40625 240.113281 C 382.277344 237.300781 377.585938 231.832031 376.523438 224.132813 C 375.953125 219.96875 376.078125 215.621094 375.953125 211.417969 C 375.890625 209.277344 375.855469 206.882813 375.492188 204.769531 C 374.984375 201.84375 371.738281 200.941406 369.207031 200.492188 Z M 362.648438 185.261719 C 363.984375 185.484375 365.367188 185.640625 366.375 185.773438 C 368.878906 186.097656 371.457031 186.347656 373.933594 186.800781 C 375.410156 187.074219 376.988281 187.097656 377.996094 185.828125 C 378.769531 184.851563 379.179688 183.269531 379.148438 182.035156 C 378.972656 175.160156 376.171875 171.851563 369.550781 170.261719 C 367.269531 169.714844 364.960938 169.203125 362.648438 168.722656 L 362.648438 185.261719 "/>
<path style=" stroke:none;fill-rule:nonzero;fill:rgb(70.199585%,20.399475%,35.699463%);fill-opacity:1;" d="M 406.378906 222.144531 L 408.996094 222.75 C 408.996094 224.503906 408.933594 225.195313 408.816406 226.945313 C 408.59375 230.191406 407.609375 233.644531 405.65625 235.324219 C 402.144531 238.34375 395.746094 237.539063 391.136719 235.722656 C 386.585938 233.925781 382.148438 230.378906 381.203125 223.492188 C 380.707031 219.898438 380.785156 215.089844 380.671875 211.277344 C 380.585938 208.347656 380.476563 205.894531 380.140625 203.964844 C 379.320313 199.21875 375.410156 196.800781 370.035156 195.84375 L 357.929688 193.683594 L 357.886719 215.679688 C 357.875 220.273438 359.289063 223.128906 364.566406 224.066406 L 367.808594 224.640625 L 367.808594 229.785156 C 359.621094 228.195313 342.453125 226.132813 333.117188 225.1875 L 333.117188 219.730469 L 337.875 219.871094 C 343.0625 220.023438 343.203125 216.9375 343.203125 214.214844 L 343.203125 166.535156 C 343.203125 161.660156 340.550781 159.929688 332.980469 159.695313 L 332.980469 154.167969 C 347.9375 156.28125 362.777344 158.679688 377.941406 162.425781 C 389.144531 165.191406 399.78125 172.316406 398.882813 184.808594 C 398.679688 187.667969 397.59375 190.003906 395.945313 191.488281 C 391.730469 195.273438 385.980469 195.265625 379.597656 194.878906 C 385.265625 196.902344 391.195313 200.90625 393.261719 204.914063 C 394.5625 207.445313 394.929688 211.15625 395.160156 214.085938 C 395.566406 219.144531 395.140625 223.433594 395.671875 226.675781 C 396.039063 228.914063 397.425781 231.074219 399.753906 231.828125 C 404.921875 233.503906 406.335938 227.976563 406.378906 222.144531 Z M 357.929688 188.945313 C 361.117188 190.160156 369.3125 190.753906 373.078125 191.445313 C 381.558594 193.007813 383.972656 185.914063 383.867188 181.910156 C 383.628906 172.582031 379.054688 167.6875 370.648438 165.671875 C 367.15625 164.832031 361.449219 163.644531 357.929688 162.96875 L 357.929688 188.945313 "/>
<path style=" stroke:none;fill-rule:evenodd;fill:rgb(100%,100%,100%);fill-opacity:1;" d="M 291.402344 161.964844 L 291.445313 178.753906 C 291.652344 178.738281 291.863281 178.722656 292.070313 178.707031 C 292.917969 178.640625 293.742188 178.046875 294.277344 177.421875 C 295.5625 175.90625 295.921875 173.617188 295.933594 171.699219 L 295.953125 167.039063 L 309.664063 166.929688 L 309.644531 206.210938 L 296.066406 206.144531 L 295.933594 201.582031 C 295.90625 200.578125 295.851563 199.574219 295.726563 198.578125 C 295.566406 197.285156 295.1875 195.191406 294.269531 194.199219 C 293.753906 193.648438 293.039063 193.523438 292.3125 193.503906 C 292.03125 193.492188 291.746094 193.492188 291.464844 193.492188 L 291.484375 209.828125 C 291.484375 212.707031 291.960938 212.867188 294.894531 213.007813 L 302.039063 213.355469 L 302.035156 227.789063 L 297.300781 227.773438 C 285.546875 227.738281 273.792969 228.1875 262.054688 228.824219 L 257.203125 229.089844 L 256.832031 214.328125 L 261.382813 214.058594 C 265.730469 213.796875 267.117188 214.0625 267.125 209.480469 C 267.144531 195.570313 267.164063 181.660156 267.1875 167.746094 C 267.195313 162.902344 266.992188 163.230469 262.148438 163.589844 L 257.074219 163.964844 L 257.085938 149.238281 L 261.394531 148.863281 C 281.71875 147.101563 302.085938 147.359375 322.441406 148.3125 L 326.941406 148.519531 L 326.945313 184.425781 L 312.582031 183.808594 L 312.566406 179.300781 C 312.550781 173.78125 312.027344 166.28125 306.238281 163.6875 C 302.601563 162.058594 296.460938 161.855469 291.402344 161.964844 "/>
<path style=" stroke:none;fill-rule:nonzero;fill:rgb(70.199585%,20.399475%,35.699463%);fill-opacity:1;" d="M 322.222656 153.027344 L 322.222656 179.5 L 317.289063 179.285156 C 317.257813 169.128906 314.808594 162.355469 308.167969 159.378906 C 302.308594 156.753906 292.308594 157.144531 286.667969 157.414063 L 286.734375 183.695313 C 288.425781 183.679688 290.734375 183.539063 292.429688 183.410156 C 296.015625 183.140625 300.613281 179.761719 300.652344 171.722656 L 304.941406 171.6875 L 304.925781 201.464844 L 300.652344 201.445313 C 300.496094 195.921875 299.496094 188.996094 292.453125 188.785156 C 290.847656 188.734375 288.484375 188.917969 286.738281 189 L 286.765625 211.300781 C 286.769531 216.03125 289.523438 217.472656 292.546875 217.621094 L 297.316406 217.851563 L 297.316406 223.054688 C 285.171875 223.015625 273.363281 223.484375 261.800781 224.113281 L 261.664063 218.769531 C 263.460938 218.660156 264.457031 218.289063 266.257813 218.195313 C 270.917969 217.953125 271.835938 214.546875 271.839844 211.722656 L 271.90625 167.753906 C 271.914063 164.542969 272.859375 159.585938 267.253906 158.820313 C 266.152344 158.667969 263.976563 158.71875 261.800781 158.882813 L 261.800781 153.566406 C 282.144531 151.800781 302.257813 152.09375 322.222656 153.027344 "/>
<path style=" stroke:none;fill-rule:nonzero;fill:rgb(100%,100%,100%);fill-opacity:1;" d="M 265.171875 263.796875 L 265.171875 281.71875 C 265.171875 282.59375 265.300781 283.484375 265.546875 283.773438 C 265.789063 284.0625 266.285156 284.511719 267.035156 284.511719 L 269.472656 284.511719 L 269.472656 287.65625 L 253.996094 287.65625 L 253.996094 284.515625 C 254.054688 284.539063 255.886719 284.511719 255.984375 284.511719 C 257.550781 284.511719 258.332031 283.28125 258.332031 281.96875 L 258.332031 271.882813 C 258.332031 270.175781 257.785156 270.152344 256.328125 270.152344 L 253.957031 270.148438 L 253.957031 267.0625 C 257.179688 267.214844 259.925781 266.269531 260.304688 263.796875 L 265.171875 263.796875 "/>
<path style=" stroke:none;fill-rule:nonzero;fill:rgb(100%,100%,100%);fill-opacity:1;" d="M 288.78125 277.210938 C 286.761719 278.347656 285.214844 278.550781 283.214844 278.550781 C 279.128906 278.550781 275.339844 276.628906 275.273438 271.375 C 275.207031 266.136719 279.945313 263.1875 284.980469 263.1875 C 291.734375 263.1875 295.488281 269.753906 295.488281 275.503906 C 295.488281 281.972656 291.953125 288.554688 284.441406 288.554688 C 281.882813 288.554688 278.878906 288.164063 277.011719 286.226563 C 276.234375 285.4375 275.851563 284.460938 275.851563 283.296875 C 275.851563 282.542969 276.03125 281.867188 276.394531 281.269531 C 277.535156 279.398438 279.785156 279.335938 281.660156 280.3125 C 283.347656 281.1875 283.214844 284.546875 281.992188 284.839844 C 287.328125 287.320313 288.78125 279.144531 288.78125 277.210938 Z M 288.441406 271.523438 C 288.441406 269.355469 287.527344 266.777344 284.886719 267.003906 C 282.65625 267.199219 281.800781 268.804688 281.800781 270.835938 C 281.800781 274.34375 283.378906 275.570313 285.300781 275.503906 C 287.554688 275.421875 288.441406 273.496094 288.441406 271.523438 "/>
<path style=" stroke:none;fill-rule:nonzero;fill:rgb(100%,100%,100%);fill-opacity:1;" d="M 308.480469 263.1875 C 310.070313 263.1875 311.515625 263.480469 312.816406 264.0625 C 314.113281 264.65625 315.230469 265.496094 316.148438 266.597656 C 317.070313 267.707031 317.777344 269.027344 318.261719 270.570313 C 318.75 272.117188 318.992188 273.835938 318.992188 275.730469 C 318.992188 278.960938 318.433594 281.53125 317.320313 283.449219 C 316.207031 285.363281 314.859375 286.699219 313.277344 287.441406 C 311.695313 288.183594 310.101563 288.554688 308.503906 288.554688 C 306.953125 288.554688 305.535156 288.25 304.242188 287.636719 C 302.949219 287.019531 301.835938 286.144531 300.898438 285.003906 C 299.964844 283.859375 299.25 282.492188 298.746094 280.902344 C 298.242188 279.308594 297.988281 277.570313 297.988281 275.695313 C 297.988281 273.84375 298.242188 272.148438 298.738281 270.613281 C 299.242188 269.078125 299.960938 267.757813 300.890625 266.640625 C 301.820313 265.527344 302.929688 264.671875 304.21875 264.082031 C 305.5 263.484375 306.917969 263.1875 308.480469 263.1875 Z M 308.4375 267.253906 C 304.46875 267.253906 304.921875 273.144531 304.828125 275.773438 C 304.742188 278.253906 304.757813 285.203125 308.824219 285.003906 C 312.664063 284.816406 312.3125 278.429688 312.304688 275.714844 C 312.296875 272.941406 312.539063 267.253906 308.4375 267.253906 "/>
<path style=" stroke:none;fill-rule:nonzero;fill:rgb(100%,100%,100%);fill-opacity:1;" d="M 322.382813 275.101563 L 322.382813 264.203125 L 325.648438 264.203125 L 325.648438 267.589844 C 327.449219 264.035156 330.304688 264.023438 331.789063 264.175781 C 333.839844 264.382813 336.558594 266.378906 338.277344 265.914063 C 338.558594 265.839844 339.21875 265.902344 339.40625 264.28125 L 341.945313 264.28125 C 341.945313 266.195313 341.410156 267.488281 341.039063 268.601563 C 340.105469 271.417969 338.503906 273.9375 337 276.449219 C 335.234375 279.402344 334.40625 281.925781 334.539063 287.519531 L 327.242188 287.515625 C 327.644531 277.796875 333.152344 274.109375 336.824219 269.792969 C 335.265625 270.859375 332.074219 271.007813 330.828125 270.449219 C 328.605469 269.457031 325.664063 268.714844 325.679688 272.726563 L 325.683594 275.101563 L 322.382813 275.101563 "/>
</g>
</svg>
